<?xml version="1.0" encoding="UTF-8"?>
<svg xmlns="http://www.w3.org/2000/svg" width="24" height="24" viewBox="0 0 24 24" fill="none">
  <path 
    fill="#0077ff" 
    d="M21.543 6.36016C21.518 5.43716 21.128 4.87016 20.158 4.87016H17.47C16.624 4.87016 16.336 5.25416 16.192 5.56616C16.036 5.89016 15.424 7.21016 14.41 8.80616C13.396 10.4022 12.832 10.7442 12.556 10.7442C12.388 10.7442 12.112 10.4022 12.112 9.89816V6.36016C12.112 5.61416 11.956 4.87016 11.134 4.87016H7.94799C7.63599 4.87016 7.37199 5.20216 7.37199 5.46416C7.37199 6.09416 8.12799 6.22616 8.21199 7.42616V10.8762C8.21199 11.7582 8.09199 11.8902 7.81599 11.8902C6.98199 11.8902 5.10799 9.38216 3.86799 7.03016C3.59199 6.51416 3.29199 6.39416 3.06999 6.39416H0.449989C-0.088011 6.39416 -0.00401104 6.81416 0.179989 7.34216C0.855989 8.81816 2.82399 12.2322 5.63599 15.0102C8.44799 17.7882 11.452 17.6202 11.452 17.6202C12.812 17.6202 13.048 17.1582 13.048 16.4862V14.1582C13.048 13.3662 13.192 13.2342 13.564 13.2342C13.84 13.2342 14.392 13.5642 15.608 14.8122C17.072 16.3242 17.336 17.6202 18.26 17.6202H20.948C21.82 17.6202 22.384 17.1582 22.108 16.3122C21.844 15.4902 21.088 14.4522 20.062 13.1802C19.124 12.0222 18.3 11.2302 18.024 10.8762C17.68 10.4442 17.794 10.2342 18.024 9.93416C18.292 9.57416 19.324 8.12216 20.3 6.64616C21.056 5.59016 21.568 4.87016 21.543 6.36016Z"
  />
</svg>
